<svg width="60" height="60" viewBox="0 0 60 60" fill="none" xmlns="http://www.w3.org/2000/svg">
<circle cx="30" cy="30" r="30" fill="#0E63AB"/>
<g clip-path="url(#clip0_219_108)">
<path d="M31.8646 15C29.8229 15.1306 23 22.6647 23 25.1108C23 26.09 24.1146 27.0347 25.2631 27.0347C25.8673 27.0347 26.4753 26.7429 27.0157 25.7291C27.3009 25.1761 27.8751 24.3582 28.6107 23.4135L29.8229 21.8814L29.7291 23.8398C29.7291 29.093 29.0911 34.277 28.4531 39.4995L28.1341 42.0761C28.1041 42.2067 28.1041 42.3027 28.1041 42.3027C28.1041 43.4432 28.9635 44 29.9205 44C31.0989 44 32.1535 43.1859 32.3112 41.911C33.2344 34.2117 34 27.1653 34 20.0535L33.97 19.9882V17.089C33.8762 15.7181 33.0768 15.1306 31.8646 15Z" fill="white"/>
</g>
<defs>
<clipPath id="clip0_219_108">
<rect width="11" height="29" fill="white" transform="translate(23 15)"/>
</clipPath>
</defs>
</svg>
