<svg width="60" height="61" viewBox="0 0 60 61" fill="none" xmlns="http://www.w3.org/2000/svg">
<ellipse cx="30" cy="30.5" rx="30" ry="30.5" fill="#0E63AB"/>
<g clip-path="url(#clip0_219_112)">
<path d="M37.6156 45C38.9818 45 40 43.7797 40 42.4931C40 41.5862 39.3337 40.9263 38.4428 40.7714C36.822 40.4912 35.2012 40.3032 31.735 40.0194L25.8843 39.4258L26.6143 38.4857L28.4597 36.2627C31.9895 32.0046 35.613 27.6175 35.613 22.9207C35.613 20.0083 34.213 17 30.874 17C28.0779 17 22.4181 19.1604 22.4181 21.8553C22.4181 22.9502 23.3389 24.1742 24.6753 24.2995H24.8325C25.2143 24.2995 25.5961 24.1742 26.0415 23.6433C26.487 22.7991 27.3779 21.859 28.9987 21.859C29.5078 21.859 30.0805 21.9512 30.7168 22.1724L31.2259 22.3272L31.1623 22.8912C30.8141 25.741 28.9987 28.1521 27.2843 30.3751L25.0908 33.1954C22.4481 36.5724 21.3026 38.1097 20.2845 39.7982C20.0936 40.1115 20 40.4876 20 40.8636C20 41.8037 20.6363 42.7438 21.5909 42.9945C23.6571 43.5253 25.5961 43.776 30.2714 44.1521C33.8649 44.4654 35.4857 44.6535 37.1701 44.9668C37.3273 44.9963 37.4546 44.9963 37.6156 44.9963V45Z" fill="white"/>
</g>
<defs>
<clipPath id="clip0_219_112">
<rect width="20" height="28" fill="white" transform="translate(20 17)"/>
</clipPath>
</defs>
</svg>
