<svg width="60" height="60" viewBox="0 0 60 60" fill="none" xmlns="http://www.w3.org/2000/svg">
<circle cx="30" cy="30" r="30" fill="#0E63AB"/>
<g clip-path="url(#clip0_219_118)">
<path d="M28.0757 15C26.4909 15 21.6333 15.5682 21.5301 17.8173C21.4983 18.5552 21.967 19.4272 22.6779 19.8968C22.948 20.0625 23.3531 20.2637 23.8576 20.2637C24.1594 20.2637 24.497 20.1966 24.8346 20.0309C25.4066 19.731 26.6895 19.3286 27.8056 19.3286C29.0527 19.3286 30.4389 19.7981 30.6057 21.0726V21.2383C30.6057 22.3116 29.4579 23.3848 26.7252 24.9908C25.8475 25.5274 25.5456 26.2969 25.5456 27.0032C25.5456 27.236 25.5774 27.4372 25.6449 27.6384C25.7799 28.0725 26.2844 29.2128 27.9724 29.1142H29.0845C31.8529 29.1142 36.6747 29.6153 36.6747 33.5374C36.6747 37.4596 31.5788 40.6754 27.464 40.6754C25.7442 40.6754 23.7861 40.1072 22.3681 39.1326C21.7604 38.7301 21.3553 38.5959 21.0177 38.5959C19.9056 38.5959 19.0596 39.8034 18.9921 40.8096V40.9753C18.9921 43.9267 25.3708 44.9961 27.4958 44.9961C34.2797 44.9961 40.9921 40.0677 40.9921 32.9968C40.9921 28.9406 37.8186 26.5257 34.1446 25.488L33.2351 25.2197L33.807 24.4818C34.7523 23.2428 35.1892 21.9999 35.1892 20.6938C35.1972 16.9453 31.6543 15 28.0757 15Z" fill="white"/>
</g>
<defs>
<clipPath id="clip0_219_118">
<rect width="22" height="30" fill="white" transform="translate(19 15)"/>
</clipPath>
</defs>
</svg>
