<svg width="60" height="60" viewBox="0 0 60 60" fill="none" xmlns="http://www.w3.org/2000/svg">
<circle cx="30" cy="30" r="30" fill="#0E63AB"/>
<g clip-path="url(#clip0_219_133)">
<path d="M24.357 13C22.9396 13 21.9303 13.8567 21.8206 15.3153C21.8206 16.2467 21.7109 17.2571 21.5617 18.2281L21.3379 20.2798C21.079 22.4808 21.0044 23.4166 21.0044 24.3084C21.0044 27.8934 22.2331 29.6815 26.0377 29.6815C26.2966 29.6815 26.595 29.6815 26.9329 29.6463L31.1061 29.3871L30.8472 30.3581C29.6536 35.3225 28.7979 39.874 28.7979 44.6891C28.7979 46.1082 29.9169 47.0044 31.2597 47.0044H31.2948C32.8219 47.0044 33.6074 46.073 33.6074 44.5397V43.7182C33.6074 38.6439 34.801 33.6794 35.9946 28.8995L36.5519 26.7336C37.8201 24.7917 38.0044 21.8086 38.0044 19.4187V19.0101C38.0044 17.1078 36.6265 16.809 36.0648 16.7695C34.8712 16.6948 33.4538 17.4768 33.23 19.1199L32.5235 23.3375L32.4489 23.6363L32.2251 23.7856C31.1807 24.493 28.9822 24.9059 27.6394 24.9059C27.3805 24.9059 27.1567 24.9059 26.968 24.8708L24.73 25.13L25.0635 24.0492C25.9938 21.2111 26.4414 18.2281 26.6301 15.2406C26.6301 14.419 26.3317 13.7864 25.7349 13.3734C25.3268 13.1494 24.8397 13 24.357 13V13Z" fill="white"/>
</g>
<defs>
<clipPath id="clip0_219_133">
<rect width="17" height="34" fill="white" transform="translate(21 13)"/>
</clipPath>
</defs>
</svg>
