<svg width="60" height="60" viewBox="0 0 60 60" fill="none" xmlns="http://www.w3.org/2000/svg">
<circle cx="30" cy="30" r="30" fill="#0E63AB"/>
<g clip-path="url(#clip0_219_126)">
<path d="M28.3802 15C23.4822 15 21.8261 16.979 21.8261 21.8453L21.9235 24.3299V26.4786C21.9547 26.6801 21.9547 26.846 21.9547 27.0158C21.9547 27.1857 21.9547 27.3516 21.9235 27.4859V27.8216C21.9235 29.1646 22.9834 29.8006 24.2069 29.8006C24.3706 29.8006 24.5031 29.8006 24.9005 29.7334C25.7617 29.5991 26.7865 29.532 27.6165 29.532C31.6534 29.532 35.7254 31.108 35.7254 35.3029C35.7254 39.0948 32.3158 40.6709 29.3349 40.6709C27.184 40.6709 25.5941 39.8335 24.8655 38.3206C24.4368 37.3806 23.8718 37.112 23.2756 37.112C22.0833 37.112 20.9922 38.1863 20.9922 39.4622C20.9922 39.7624 21.0584 40.0981 21.3234 40.6709C22.7808 43.8269 26.1553 45 29.2024 45H29.2336C35.0591 45 39.9922 41.2436 39.9922 35.1686C39.9922 27.9559 32.9744 25.4359 26.8177 25.4359H26.0578L26.0267 24.8315L26.654 24.7999L26.0267 24.8315L25.8942 21.7426C25.8942 19.661 26.2254 19.191 28.2438 19.191C29.1712 19.191 30.2974 19.2897 32.2145 19.4912L34.4005 19.6926H34.6304C35.854 19.6926 36.3527 18.6182 36.3527 17.6781C36.3839 16.6709 35.8228 15.4977 34.3655 15.4306L32.0158 15.2291C31.9184 15.2291 31.8171 15.2291 31.7508 15.1975H31.4547C30.461 15.0988 29.4011 14.9961 28.3763 14.9961L28.3802 15Z" fill="white"/>
</g>
<defs>
<clipPath id="clip0_219_126">
<rect width="19" height="30" fill="white" transform="translate(21 15)"/>
</clipPath>
</defs>
</svg>
