<svg width="455" height="183" viewBox="0 0 455 183" fill="none" xmlns="http://www.w3.org/2000/svg">
<g clip-path="url(#clip0_219_153)">
<path d="M33.6646 20.3559C28.7238 24.3819 24.2098 28.9507 20.2572 33.8813C12.3295 43.6974 6.64758 54.848 3.30133 66.9711C1.1229 74.9099 0 83.1427 0 91.4434C0 99.7442 1.1229 108.067 3.32379 116.029C6.67004 128.152 12.3968 139.28 20.3245 149.119C24.2771 154.049 28.7463 158.55 33.6422 162.531C43.3889 170.515 54.4383 176.283 66.4983 179.653C74.426 181.869 82.6456 183 90.9326 183H181.798V154.185H87.8559V153.981C79.6587 153.574 71.7535 151.607 64.3648 148.078C51.384 141.881 40.8512 131.273 34.6977 118.2C30.7451 109.809 28.7463 100.807 28.7463 91.4434C28.7463 82.0797 30.7226 73.1683 34.6303 64.8224C40.7838 51.6815 51.3391 41.0285 64.3423 34.8313C72.6967 30.8506 81.635 28.8376 90.9102 28.8376C100.185 28.8376 109.124 30.8506 117.478 34.8313C130.504 41.0285 141.059 51.6815 147.19 64.8224C151.098 73.1909 153.074 82.1476 153.074 91.4434C153.074 99.1561 151.704 106.665 149.009 113.767H179.103C180.9 106.484 181.82 98.9978 181.82 91.4434C181.82 83.1427 180.72 74.9099 178.519 66.9711C175.218 54.8706 169.513 43.7427 161.586 33.8813C157.588 28.9054 153.074 24.3367 148.156 20.3333C138.431 12.3493 127.382 6.60437 115.3 3.21172C108.944 1.42492 102.319 0.339266 95.6264 0H86.1266C79.479 0.339266 72.8539 1.42492 66.4758 3.23433C54.4608 6.62699 43.4114 12.3719 33.6646 20.3559V20.3559Z" fill="#0E63AB"/>
<path d="M181.82 148.01V119.919H90.9551C75.4141 119.919 62.7478 107.14 62.7478 91.4887C62.7478 75.8372 75.3916 63.0808 90.9551 63.0808C106.518 63.0808 119.14 75.8146 119.14 91.4887C119.14 100.219 115.142 108.429 108.338 113.812H142.362C145.416 106.71 146.943 99.2239 146.943 91.4887C146.943 83.0975 145.169 75.023 141.643 67.5139C136.118 55.6622 126.618 46.0723 114.873 40.4857C107.349 36.9121 99.3095 35.0801 90.9551 35.0801C82.6007 35.0801 74.5382 36.8895 67.0148 40.4857C55.2917 46.0723 45.7695 55.6848 40.2223 67.5139C36.7189 75.023 34.9222 83.0975 34.9222 91.4887C34.9222 99.8799 36.7189 108.022 40.2673 115.577C45.7919 127.36 55.2917 136.928 66.9923 142.514C74.4933 146.088 82.5333 147.897 90.9326 147.897H94.0094V148.033H181.82V148.01Z" fill="#0E63AB"/>
<path d="M200.326 19.1348H213.419V55.2326H234.44V67.7176H200.326V19.1348Z" fill="#0E63AB"/>
<path d="M257.886 19.1348H272.371L290.63 67.7403H276.503L273.067 57.3361H257.212L253.776 67.7403H239.65L257.886 19.1348V19.1348ZM269.609 46.5474L265.274 32.6602H265.005L260.671 46.5474H269.609V46.5474Z" fill="#0E63AB"/>
<path d="M227.208 74.4575C242.659 74.4575 254.09 85.9021 254.09 100.151C254.09 114.4 242.659 125.845 227.208 125.845C211.757 125.845 200.326 114.4 200.326 100.151C200.326 85.9021 211.779 74.4575 227.208 74.4575ZM227.208 113.677C234.731 113.677 240.66 107.773 240.66 100.129C240.66 92.4838 234.731 86.5806 227.208 86.5806C219.685 86.5806 213.756 92.5517 213.756 100.129C213.778 107.773 219.64 113.677 227.208 113.677Z" fill="#0E63AB"/>
<path d="M260.985 75.8374H274.078V111.935H295.099V124.42H260.985V75.8374V75.8374Z" fill="#0E63AB"/>
<path d="M318.522 75.8374H333.008L351.266 124.443H337.14L333.704 114.039H317.849L314.413 124.443H300.286L318.522 75.8374ZM330.246 103.273L325.911 89.3854H325.642L321.307 103.273H330.246V103.273Z" fill="#0E63AB"/>
<path d="M227.904 154.072H248.588V172.822C247.151 174.631 245.354 176.215 243.221 177.685C239.627 180.105 234.327 182.548 227.23 182.548C211.779 182.548 200.348 171.103 200.348 156.854C200.348 142.605 211.802 131.16 227.23 131.16C234.125 131.16 239.223 133.445 242.749 135.887C244.748 137.267 246.477 138.805 247.914 140.547L239.987 149.571C238.954 148.395 237.786 147.354 236.461 146.45C234.192 144.844 231.093 143.328 227.23 143.328C219.64 143.328 213.778 149.3 213.778 156.877C213.778 164.453 219.64 170.425 227.23 170.425C229.993 170.425 232.126 169.791 233.564 169.045C234.395 168.638 235.158 168.14 235.832 167.665V163.843H227.904V154.072V154.072Z" fill="#0E63AB"/>
<path d="M269.609 182.593V165.879H276.84L285.509 182.593H300.017L288.563 163.097C290.158 162.328 291.528 161.287 292.696 160.043C294.829 157.895 296.828 154.479 296.828 149.209C296.828 139.846 289.529 132.54 279.243 132.54H256.493V182.593H269.609V182.593ZM269.609 144.346H278.57C281.669 144.346 283.735 146.427 283.735 149.209C283.735 151.991 281.669 154.072 278.57 154.072H269.609V144.346V144.346Z" fill="#0E63AB"/>
<path d="M329.909 131.16C345.36 131.16 356.791 142.605 356.791 156.854C356.791 171.103 345.36 182.548 329.909 182.548C314.458 182.548 303.026 171.103 303.026 156.854C303.026 142.605 314.458 131.16 329.909 131.16V131.16ZM329.909 170.379C337.432 170.379 343.361 164.476 343.361 156.831C343.361 149.186 337.432 143.283 329.909 143.283C322.385 143.283 316.456 149.254 316.456 156.831C316.456 164.408 322.318 170.379 329.909 170.379Z" fill="#0E63AB"/>
<path d="M363.326 132.562H376.419V161.016C376.419 166.58 380.215 170.379 385.38 170.379C390.545 170.379 394.341 166.557 394.341 161.016V132.562H407.434V161.016C407.434 173.501 398.406 182.525 385.38 182.525C372.354 182.525 363.326 173.501 363.326 161.016V132.562V132.562Z" fill="#0E63AB"/>
<path d="M415.362 132.562H437.078C447.768 132.562 455 139.845 455 149.571C455 159.297 447.768 166.58 437.078 166.58H428.455V182.548H415.362V132.562V132.562ZM436.382 154.773C439.481 154.773 441.907 152.353 441.907 149.571C441.907 146.789 439.504 144.369 436.382 144.369H428.455V154.773H436.382Z" fill="#0E63AB"/>
</g>
<defs>
<clipPath id="clip0_219_153">
<rect width="455" height="183" fill="white"/>
</clipPath>
</defs>
</svg>
