<svg version="1.2" xmlns="http://www.w3.org/2000/svg" viewBox="0 0 842 596" width="842" height="596">
	<title>LOG_logos-svg</title>
	<style>
		.s0 { fill: #0e63ab } 
	</style>
	<g id="Layer">
		<path id="Layer" fill-rule="evenodd" class="s0" d="m466.9 303.4v47.8c0 5.4-4.3 9.7-9.7 9.7h-47.8c-31.8 0-57.6-25.7-57.6-57.5 0-31.8 25.8-57.6 57.6-57.6 31.8 0 57.5 25.8 57.5 57.6zm-18.4 27.1h-40.9v-0.1c-3.5-0.2-6.8-1.1-10-2.6-5.6-2.7-10.2-7.2-12.9-12.9-1.7-3.6-2.5-7.5-2.5-11.5 0-4.1 0.8-7.9 2.5-11.5 2.7-5.7 7.3-10.3 12.9-13 3.7-1.7 7.6-2.6 11.6-2.6 4 0 7.9 0.9 11.6 2.6 5.6 2.7 10.2 7.3 12.9 13 1.7 3.6 2.5 7.4 2.5 11.5 0 3.2-0.5 6.3-1.6 9.3h12.4c0.8-3.1 1.1-6.2 1.1-9.3 0-3.6-0.4-7.1-1.4-10.4-1.4-5.2-3.8-9.9-7.2-14.1-1.7-2.1-3.7-4.1-5.8-5.8-4.1-3.4-8.9-5.8-14-7.3q-4.2-1.1-8.5-1.3h-4.1c-2.8 0.1-5.6 0.6-8.4 1.3-5.1 1.5-9.9 3.9-14 7.3-2.1 1.7-4.1 3.7-5.8 5.8-3.4 4.1-5.8 8.9-7.2 14-1 3.4-1.4 6.9-1.4 10.4 0 3.6 0.4 7.1 1.4 10.5 1.4 5.2 3.9 9.9 7.3 14.1 1.6 2.1 3.6 4 5.7 5.7 4.1 3.4 8.9 5.8 14 7.2 3.4 1 6.9 1.5 10.5 1.5h39.3c0 0 0-11.8 0-11.8zm0-14.7h-4.9-34.4c-6.9 0-12.4-5.6-12.4-12.4 0-6.9 5.5-12.4 12.4-12.4 6.8 0 12.4 5.5 12.4 12.4 0 3.5-1.6 6.9-4.2 9.3h13.8c1.2-3 1.9-6.1 1.9-9.3 0-3.6-0.8-7-2.3-10.2-2.4-5-6.4-9.1-11.4-11.4-3.2-1.6-6.7-2.3-10.2-2.3-3.6 0-7 0.7-10.2 2.3-5 2.3-9.1 6.4-11.5 11.4-1.5 3.2-2.2 6.6-2.2 10.2 0 3.5 0.8 7 2.3 10.2 2.3 4.9 6.4 9 11.4 11.4 3.2 1.5 6.6 2.2 10.2 2.2h1.6v0.1h37.7z"/>
	</g>
</svg>