<svg version="1.2" xmlns="http://www.w3.org/2000/svg" viewBox="0 0 842 596" width="842" height="596">
	<title>LOG_logos-svg</title>
	<style>
		.s0 { fill: #0e63ab } 
	</style>
	<g id="Layer">
		<path id="Layer" class="s0" d="m349.7 299.6c2.8-0.8 5.8-1.2 8.7-1.4h4.3c2.9 0.2 5.9 0.6 8.7 1.4 5.4 1.5 10.3 4.1 14.6 7.6 2.2 1.8 4.2 3.8 6 6 3.6 4.3 6.1 9.3 7.6 14.6 0.9 3.5 1.4 7.2 1.4 10.8 0 3.4-0.4 6.7-1.2 9.9h-13.4c1.2-3.1 1.8-6.5 1.8-9.9 0-4.1-0.8-8-2.6-11.7-2.7-5.8-7.4-10.6-13.2-13.3-3.7-1.8-7.7-2.6-11.9-2.6-4.1 0-8.1 0.8-11.8 2.6-5.8 2.7-10.5 7.5-13.2 13.3-1.7 3.7-2.6 7.6-2.6 11.7 0 4.2 0.9 8.2 2.6 11.9 2.8 5.7 7.5 10.4 13.2 13.2 3.3 1.5 6.8 2.4 10.5 2.6v0.1h41.8v12.7h-40.4c-3.7 0-7.4-0.5-10.9-1.5-5.4-1.5-10.3-4-14.7-7.5q-3.2-2.7-5.9-6c-3.5-4.3-6.1-9.2-7.6-14.6-0.9-3.5-1.4-7.2-1.4-10.9 0-3.6 0.5-7.3 1.4-10.8 1.5-5.3 4.1-10.3 7.6-14.6 1.8-2.2 3.8-4.2 6-6 4.3-3.5 9.2-6.1 14.6-7.6z"/>
		<path id="Layer" class="s0" d="m401 363.7h-39.1v-0.1h-1.3c-3.8 0-7.4-0.8-10.7-2.4-5.2-2.4-9.4-6.7-11.9-11.9-1.6-3.3-2.4-6.9-2.4-10.6 0-3.7 0.8-7.3 2.4-10.6 2.5-5.3 6.7-9.5 11.9-12 3.4-1.6 6.9-2.4 10.7-2.4 3.7 0 7.3 0.8 10.6 2.4 5.3 2.5 9.5 6.7 11.9 12 1.6 3.3 2.4 6.9 2.4 10.6q0 5.1-2 9.8h-15.2c3-2.3 4.8-6 4.8-9.8 0-7-5.6-12.6-12.5-12.6-7 0-12.6 5.6-12.6 12.6 0 6.9 5.7 12.5 12.6 12.5h35.5 4.9v12.4z"/>
		<g id="Layer">
			<path id="Layer" class="s0" d="m409.3 306.7h5.8v15.9h9.4v5.5h-15.2z"/>
			<path id="Layer" fill-rule="evenodd" class="s0" d="m434.9 306.7h6.4l8.2 21.5h-6.3l-1.5-4.6h-7.1l-1.5 4.6h-6.3zm5.2 12.1l-1.9-6.2h-0.1l-2 6.2z"/>
			<path id="Layer" fill-rule="evenodd" class="s0" d="m421.2 331.1c6.9 0 12 5.1 12 11.4 0 6.3-5.1 11.3-12 11.3-6.8 0-11.9-5-11.9-11.3 0-6.3 5.1-11.4 11.9-11.4zm0 17.4c3.4 0 6-2.6 6-6 0-3.4-2.6-6-6-6-3.3 0-5.9 2.6-5.9 6 0 3.4 2.6 6 5.9 6z"/>
			<path id="Layer" class="s0" d="m436.3 331.7h5.8v16h9.4v5.5h-15.2z"/>
			<path id="Layer" fill-rule="evenodd" class="s0" d="m461.9 331.7h6.4l8.2 21.5h-6.3l-1.5-4.6h-7.1l-1.5 4.6h-6.3zm5.2 12.2l-1.9-6.2h-0.1l-2 6.2z"/>
			<path id="Layer" class="s0" d="m421.6 366.3h9.2v8.3q-1 1.2-2.4 2.2c-1.6 1-4 2.1-7.2 2.1-6.8 0-11.9-5-11.9-11.3 0-6.3 5.1-11.4 11.9-11.4 3.1 0 5.4 1 7 2.1q1.3 0.9 2.3 2.1l-3.6 3.9q-0.7-0.7-1.5-1.3c-1-0.8-2.4-1.4-4.1-1.4-3.4 0-6 2.6-6 6 0 3.4 2.6 6 6 6 1.2 0 2.1-0.3 2.8-0.6q0.5-0.3 1-0.7v-1.7h-3.5z"/>
			<path id="Layer" fill-rule="evenodd" class="s0" d="m434.3 378.9v-22.1h10.1c4.6 0 7.8 3.2 7.8 7.4 0 2.3-0.9 3.8-1.8 4.8q-0.8 0.8-1.8 1.3l5.1 8.6h-6.5l-3.9-7.3h-3.2v7.3zm5.9-12.6h4c1.3 0 2.3-0.9 2.3-2.1 0-1.2-1-2.2-2.3-2.2h-4z"/>
			<path id="Layer" fill-rule="evenodd" class="s0" d="m467 356.2c6.9 0 11.9 5.1 11.9 11.4 0 6.3-5 11.3-11.9 11.3-6.9 0-12-5-12-11.3 0-6.3 5.1-11.4 12-11.4zm0 17.3c3.3 0 6-2.6 6-6 0-3.3-2.7-5.9-6-5.9-3.4 0-6 2.6-6 5.9 0 3.4 2.6 6 6 6z"/>
			<path id="Layer" class="s0" d="m481.9 356.8h5.8v12.6c0 2.5 1.7 4.1 4 4.1 2.3 0 4-1.6 4-4.1v-12.6h5.8v12.6c0 5.5-4 9.5-9.8 9.5-5.8 0-9.8-4-9.8-9.5z"/>
			<path id="Layer" fill-rule="evenodd" class="s0" d="m505 356.8h9.7c4.8 0 8 3.2 8 7.5 0 4.3-3.2 7.6-8 7.6h-3.8v7h-5.9zm9.4 9.8c1.4 0 2.4-1 2.4-2.3 0-1.2-1-2.3-2.4-2.3h-3.5v4.6z"/>
		</g>
	</g>
</svg>