<svg version="1.2" xmlns="http://www.w3.org/2000/svg" width="300" height="90" viewBox="335 200 190 190" >
	<title>LOG_logos-svg</title>
	<style>
		.s0 { fill: #0e63ab } 
	</style>
	<g id="Layer">
		<path id="Layer" class="s0" d="m438.4 272.3h-4.4l2.1-6.7h0.2z"/>
		<circle id="Layer" class="s0" cx="417.3" cy="297.8" r="6.5"/>
		<path id="Layer" class="s0" d="m466.2 299.3h-4.3l2.1-6.6h0.1z"/>
		<path id="Layer" class="s0" d="m444.5 321.3c0 1.3-1 2.3-2.5 2.3h-4.3v-4.7h4.3c1.5 0 2.5 1 2.5 2.3z"/>
		<path id="Layer" fill-rule="evenodd" class="s0" d="m547.1 302.8v45.7c0 4.1-3.3 7.4-7.4 7.4h-190.6v-0.1c-30.1-1.7-54-26.7-54-57.3 0-30.6 23.9-55.6 54-57.3v-0.1h136.3c34.1 0 61.7 27.6 61.7 61.7zm-155.6 22.7h-40.8v-0.1c-3.4-0.2-6.8-1-9.9-2.5-5.7-2.7-10.2-7.3-12.9-12.9-1.7-3.6-2.6-7.5-2.6-11.5 0-4.1 0.9-7.9 2.6-11.5 2.6-5.7 7.2-10.3 12.9-12.9 3.6-1.7 7.5-2.6 11.5-2.6 4 0 7.9 0.9 11.5 2.6 5.7 2.6 10.3 7.2 12.9 12.9 1.7 3.6 2.6 7.5 2.6 11.5 0 3.2-0.6 6.3-1.7 9.2h12.4c0.8-3 1.1-6.1 1.1-9.2 0-3.5-0.4-7-1.4-10.4-1.4-5.2-3.8-9.9-7.2-14.1-1.7-2.1-3.6-4-5.7-5.7-4.2-3.4-8.9-5.8-14.1-7.3-2.7-0.7-5.5-1.2-8.4-1.3h-4.1c-2.8 0.1-5.6 0.6-8.3 1.3-5.2 1.5-9.9 3.9-14.1 7.3q-3.2 2.6-5.7 5.7c-3.4 4.2-5.8 8.9-7.2 14.1-1 3.4-1.5 6.9-1.5 10.4 0 3.5 0.5 7 1.5 10.4 1.4 5.1 3.8 9.9 7.2 14q2.6 3.2 5.7 5.7c4.2 3.4 8.9 5.9 14.1 7.3 3.3 0.9 6.9 1.4 10.4 1.4h39.2zm0-14.6h-4.9-34.3c-6.8 0-12.4-5.6-12.4-12.4 0-6.8 5.6-12.4 12.4-12.4 6.8 0 12.4 5.6 12.4 12.4 0 3.6-1.6 6.9-4.2 9.3h13.7c1.3-3 1.9-6.1 1.9-9.3 0-3.6-0.7-7-2.2-10.1-2.4-5-6.4-9.1-11.4-11.5-3.2-1.5-6.6-2.2-10.2-2.2-3.6 0-7 0.7-10.2 2.2-5 2.4-9 6.5-11.4 11.5-1.5 3.1-2.2 6.5-2.2 10.1 0 3.5 0.7 7 2.2 10.2 2.4 5 6.4 9 11.4 11.3 3.2 1.6 6.6 2.3 10.2 2.3h1.6v0.1h37.6zm48.3-7.4v-17.2h-6.3v23.1h16.4v-5.9zm-34.1-21.1h16.4v-6h-10.1v-17.2h-6.3zm21.9 41.2h-10v4.7h3.9v1.8q-0.5 0.3-1.1 0.6c-0.7 0.4-1.8 0.7-3.1 0.7-3.6 0-6.4-2.8-6.4-6.5 0-3.6 2.8-6.4 6.4-6.4 1.9 0 3.4 0.7 4.5 1.5q0.9 0.6 1.7 1.5l3.8-4.3q-1.1-1.3-2.5-2.3c-1.7-1.1-4.2-2.2-7.5-2.2-7.4 0-12.9 5.4-12.9 12.2 0 6.8 5.5 12.3 12.9 12.3 3.4 0 6-1.2 7.7-2.3q1.5-1.1 2.6-2.3c0 0 0-9 0-9zm2.6-25.7c0-6.8-5.5-12.3-12.9-12.3-7.4 0-12.9 5.5-12.9 12.3 0 6.8 5.5 12.2 12.9 12.2 7.4 0 12.9-5.4 12.9-12.2zm0.5-15.5l1.7-5h7.6l1.7 5h6.7l-8.7-23.2h-7l-8.8 23.2zm20.9 54.1l-4.8-8.6q1.1-0.5 2-1.4c1-1.1 2-2.7 2-5.2 0-4.5-3.5-8-8.5-8h-10.9v23.2h6.3v-7.3h3.5l3.8 7.3c0 0 6.6 0 6.6 0zm0.2-27h6.8l1.6-5h7.6l1.7 5h6.8l-8.8-23.2h-6.9zm27.8 15.5c0-6.8-5.5-12.3-12.9-12.3-7.5 0-13 5.5-13 12.3 0 6.8 5.5 12.2 13 12.2 7.4 0 12.9-5.5 12.9-12.2zm23 1.9v-13.5h-6.3v13.5c0 2.7-1.8 4.5-4.3 4.5-2.5 0-4.3-1.8-4.3-4.5v-13.5h-6.3v13.5c0 6 4.3 10.3 10.6 10.3 6.3 0 10.6-4.3 10.6-10.3zm22.2-5.4c0-4.7-3.5-8.1-8.6-8.1h-10.4v23.1h6.2v-6.9h4.2c5.1 0 8.6-3.5 8.6-8.1z"/>
		<path id="Layer" class="s0" d="m518.5 321.4c0 1.3-1.2 2.5-2.7 2.5h-3.8v-5h3.8c1.5 0 2.7 1.2 2.7 2.5z"/>
		<circle id="Layer" class="s0" cx="466.7" cy="324.9" r="6.5"/>
	</g>
</svg>