<svg version="1.2" xmlns="http://www.w3.org/2000/svg" viewBox="0 0 842 596" width="842" height="596">
	<title>LOG_logos-svg</title>
	<style>
		.s0 { fill: #0e63ab } 
	</style>
	<g id="Layer">
		<path id="Layer" class="s0" d="m491.8 333.8c1 3.5 1.5 7.2 1.5 11 0 3.4-0.4 6.7-1.2 10h-13.6c1.2-3.2 1.8-6.6 1.8-10 0-4.2-0.9-8.3-2.7-12-2.7-5.9-7.5-10.7-13.4-13.5-3.8-1.8-7.8-2.7-12-2.7-4.2 0-8.3 0.9-12.1 2.7-5.9 2.8-10.6 7.6-13.4 13.5-1.8 3.7-2.7 7.8-2.7 12 0 4.2 0.9 8.2 2.7 12 2.8 5.9 7.6 10.6 13.4 13.4 3.4 1.6 7 2.5 10.7 2.7v0.1h58.3v12.9h-56.9c-3.8 0-7.5-0.5-11.1-1.5-5.4-1.5-10.5-4.1-14.9-7.7-2.2-1.8-4.2-3.8-6-6-3.6-4.4-6.2-9.4-7.7-14.9-1-3.6-1.5-7.3-1.5-11.1 0-3.7 0.5-7.4 1.5-11 1.5-5.4 4.1-10.4 7.7-14.8 1.8-2.3 3.8-4.3 6-6.1 4.4-3.6 9.5-6.2 14.9-7.7 2.9-0.8 5.9-1.3 8.9-1.5h4.3c3 0.2 6 0.7 8.9 1.5 5.5 1.5 10.5 4.1 14.9 7.7 2.2 1.8 4.3 3.8 6.1 6.1 3.6 4.4 6.1 9.4 7.6 14.9z"/>
		<path id="Layer" fill-rule="evenodd" class="s0" d="m381.4 344.8c0 3.7-0.5 7.4-1.5 11-1.5 5.5-4.1 10.5-7.7 14.9-1.8 2.2-3.8 4.2-6 6-4.4 3.6-9.4 6.2-14.9 7.7-7.1 2-15 2-22.1 0-5.5-1.5-10.5-4.1-14.9-7.7-2.2-1.8-4.2-3.8-6-6-3.6-4.4-6.2-9.4-7.7-14.9-1-3.6-1.5-7.3-1.5-11 0-3.8 0.5-7.5 1.5-11 1.5-5.5 4.1-10.5 7.6-14.9q2.8-3.4 6.1-6.1c4.4-3.6 9.4-6.2 14.9-7.7 2.9-0.8 5.9-1.3 8.9-1.5h4.3c3 0.2 6 0.7 8.9 1.5 5.5 1.5 10.5 4.1 14.9 7.7 2.2 1.8 4.2 3.8 6.1 6.1 3.5 4.4 6.1 9.4 7.6 14.8 1 3.6 1.5 7.3 1.5 11.1zm-13-0.1c0-4.1-0.9-8.2-2.7-11.9-2.8-5.9-7.5-10.7-13.4-13.5-3.8-1.8-7.9-2.7-12.1-2.7-4.2 0-8.2 0.9-12 2.7-5.9 2.8-10.7 7.6-13.5 13.5-1.7 3.7-2.6 7.8-2.6 11.9 0 4.3 0.9 8.3 2.7 12.1 2.8 5.8 7.5 10.6 13.4 13.4 3.8 1.8 7.8 2.7 12 2.7 4.2 0 8.3-0.9 12.1-2.7 5.8-2.8 10.6-7.6 13.4-13.4 1.8-3.8 2.7-7.9 2.7-12.1z"/>
		<path id="Layer" fill-rule="evenodd" class="s0" d="m365.6 344.8c0 3.7-0.8 7.4-2.4 10.8-2.5 5.3-6.8 9.6-12.1 12.1-3.4 1.6-7.1 2.4-10.9 2.4-3.8 0-7.4-0.8-10.8-2.4-5.3-2.5-9.6-6.8-12.1-12.1-1.6-3.4-2.4-7.1-2.4-10.9 0-3.7 0.8-7.3 2.4-10.7 2.5-5.4 6.8-9.7 12.1-12.2 3.4-1.6 7-2.4 10.8-2.4 3.8 0 7.5 0.8 10.9 2.4 5.3 2.5 9.6 6.8 12.1 12.2 1.6 3.4 2.4 7 2.4 10.8zm-12.6-0.1c0-7-5.7-12.7-12.8-12.7-7 0-12.7 5.7-12.7 12.7 0 7.1 5.7 12.8 12.7 12.8 7.1 0 12.8-5.7 12.8-12.8z"/>
		<path id="Layer" class="s0" d="m368.4 311v-38.6h13v56.9c-1.6-4.4-4-8.5-7-12.2-1.8-2.2-3.8-4.2-6-6.1z"/>
		<path id="Layer" class="s0" d="m384.2 344.6v-1.4-70.8h12.6v73.6h0.1c0.7 6.4 6.2 11.4 12.7 11.4h0.5c1.4 4.6 3.5 8.8 6.2 12.6h-6.7c-3.7 0-7.4-0.8-10.8-2.5-5.3-2.5-9.6-6.8-12.1-12.1-1.6-3.4-2.5-7-2.5-10.8z"/>
		<path id="Layer" class="s0" d="m424.5 378.7c3.7 3 7.8 5.4 12.3 7.1h-27.2c-3.7 0-7.5-0.5-11.1-1.5-5.4-1.6-10.4-4.2-14.8-7.8-2.2-1.7-4.3-3.8-6.1-6q-0.4-0.5-0.9-1.2c2.6-3.9 4.6-8.2 5.9-12.8q0.3-1.1 0.6-2.2 0.4 1.2 1 2.3c2.7 5.9 7.5 10.7 13.4 13.5 3.8 1.8 7.9 2.7 12 2.7h8.9c1.8 2.2 3.8 4.2 6 5.9z"/>
		<path id="Layer" class="s0" d="m475.1 334c1.6 3.3 2.4 7 2.4 10.8 0 3.4-0.7 6.8-2.1 10h-15.4c3.1-2.4 4.9-6.1 4.9-10.1 0-7-5.7-12.7-12.7-12.7-7.1 0-12.8 5.7-12.8 12.7 0 7.1 5.7 12.8 12.8 12.8h36.1l20.8 0.1v12.6h-55.5v-0.1h-1.4c-3.8 0-7.5-0.8-10.9-2.4-5.3-2.5-9.6-6.8-12.1-12.1-1.6-3.4-2.4-7.1-2.4-10.9 0-3.7 0.8-7.3 2.4-10.7 2.5-5.4 6.8-9.7 12.1-12.2 3.4-1.6 7.1-2.4 10.9-2.4 3.8 0 7.4 0.8 10.8 2.4 5.3 2.5 9.6 6.8 12.1 12.2z"/>
	</g>
</svg>