<svg width="211" height="85" viewBox="0 0 211 85" fill="none" xmlns="http://www.w3.org/2000/svg">
<g clip-path="url(#clip0_148_233)">
<path d="M15.6115 9.36564C13.3203 11.218 11.2269 13.32 9.39398 15.5886C5.71762 20.1049 3.08272 25.2352 1.53095 30.813C0.52073 34.4656 0 38.2534 0 42.0725C0 45.8916 0.52073 49.7212 1.54136 53.3842C3.09314 58.9619 5.74887 64.0818 9.42522 68.6085C11.2582 70.8771 13.3307 72.9479 15.6011 74.7794C20.121 78.4529 25.245 81.1065 30.8377 82.657C34.514 83.6768 38.3258 84.1971 42.1688 84.1971H84.3063V70.9395H40.742V70.8459C36.9406 70.6586 33.2747 69.7532 29.8483 68.1298C23.8286 65.2785 18.9442 60.398 16.0906 54.3832C14.2576 50.5224 13.3307 46.3807 13.3307 42.0725C13.3307 37.7644 14.2472 33.6643 16.0593 29.8244C18.9129 23.7783 23.8078 18.877 29.8379 16.0257C33.7121 14.1941 37.8571 13.268 42.1583 13.268C46.4596 13.268 50.6046 14.1941 54.4788 16.0257C60.5193 18.877 65.4142 23.7783 68.2574 29.8244C70.0695 33.6747 70.986 37.7956 70.986 42.0725C70.986 45.6211 70.3507 49.076 69.1009 52.3435H83.0565C83.8897 48.9927 84.3167 45.5482 84.3167 42.0725C84.3167 38.2534 83.8064 34.4656 82.7857 30.813C81.2548 25.2456 78.6095 20.1257 74.9331 15.5886C73.0793 13.2992 70.986 11.1971 68.7052 9.35524C64.1957 5.68182 59.0717 3.03863 53.4686 1.47769C50.5213 0.655595 47.449 0.156094 44.3454 0H39.94C36.8573 0.156094 33.785 0.655595 30.8272 1.4881C25.2554 3.04904 20.1314 5.69223 15.6115 9.36564Z" fill="white"/>
<path d="M84.3167 68.0986V55.174H42.1792C34.9722 55.174 29.0984 49.2945 29.0984 42.0934C29.0984 34.8922 34.9618 29.0231 42.1792 29.0231C49.3965 29.0231 55.2495 34.8818 55.2495 42.0934C55.2495 46.1102 53.3957 49.8877 50.2401 52.3644H66.0182C67.4346 49.0968 68.1428 45.6523 68.1428 42.0934C68.1428 38.2326 67.32 34.5176 65.6849 31.0627C63.1229 25.6098 58.7176 21.1976 53.2707 18.6272C49.7818 16.983 46.0534 16.1401 42.1792 16.1401C38.3049 16.1401 34.5661 16.9726 31.0772 18.6272C25.6408 21.1976 21.225 25.6202 18.6525 31.0627C17.0279 34.5176 16.1947 38.2326 16.1947 42.0934C16.1947 45.9541 17.0279 49.7003 18.6734 53.176C21.2354 58.5977 25.6408 62.9996 31.0668 65.5699C34.5452 67.2141 38.2737 68.0466 42.1687 68.0466H43.5955V68.109H84.3167V68.0986Z" fill="white"/>
<path d="M92.8983 8.80371H98.97V25.4121H108.718V31.1564H92.8983V8.80371Z" fill="white"/>
<path d="M119.591 8.80371H126.308L134.775 31.1668H128.225L126.631 26.3799H119.279L117.685 31.1668H111.134L119.591 8.80371ZM125.027 21.4161L123.017 15.0267H122.892L120.882 21.4161H125.027Z" fill="white"/>
<path d="M105.365 34.2574C112.53 34.2574 117.831 39.523 117.831 46.079C117.831 52.6349 112.53 57.9005 105.365 57.9005C98.1994 57.9005 92.8983 52.6349 92.8983 46.079C92.8983 39.523 98.2098 34.2574 105.365 34.2574ZM105.365 52.3019C108.853 52.3019 111.603 49.5859 111.603 46.0686C111.603 42.5512 108.853 39.8352 105.365 39.8352C101.876 39.8352 99.1263 42.5825 99.1263 46.0686C99.1367 49.5859 101.855 52.3019 105.365 52.3019Z" fill="white"/>
<path d="M121.028 34.8922H127.1V51.5006H136.848V57.2449H121.028V34.8922Z" fill="white"/>
<path d="M147.71 34.8922H154.428L162.895 57.2553H156.344L154.751 52.4684H147.398L145.805 57.2553H139.254L147.71 34.8922ZM153.147 47.515L151.137 41.1256H151.012L149.002 47.515H153.147Z" fill="white"/>
<path d="M105.687 70.8875H115.279V79.5143C114.613 80.3468 113.78 81.0752 112.79 81.7516C111.124 82.8651 108.666 83.989 105.375 83.989C98.2097 83.989 92.9087 78.7234 92.9087 72.1675C92.9087 65.6115 98.2201 60.3459 105.375 60.3459C108.572 60.3459 110.936 61.397 112.571 62.5209C113.498 63.1556 114.3 63.8633 114.967 64.6645L111.29 68.8166C110.811 68.2755 110.27 67.7968 109.655 67.3806C108.604 66.6417 107.166 65.9445 105.375 65.9445C101.855 65.9445 99.1366 68.6918 99.1366 72.1779C99.1366 75.664 101.855 78.4112 105.375 78.4112C106.656 78.4112 107.645 78.1199 108.312 77.7764C108.697 77.5891 109.051 77.3602 109.364 77.1417V75.383H105.687V70.8875Z" fill="white"/>
<path d="M125.027 84.0098V76.3196H128.381L132.401 84.0098H139.129L133.817 75.0396C134.557 74.6858 135.192 74.2071 135.734 73.6347C136.723 72.6461 137.65 71.0748 137.65 68.6501C137.65 64.3419 134.265 60.9807 129.495 60.9807H118.945V84.0098H125.027ZM125.027 66.4128H129.183C130.62 66.4128 131.578 67.3702 131.578 68.6501C131.578 69.9301 130.62 70.8875 129.183 70.8875H125.027V66.4128Z" fill="white"/>
<path d="M152.991 60.3459C160.156 60.3459 165.457 65.6115 165.457 72.1675C165.457 78.7234 160.156 83.989 152.991 83.989C145.825 83.989 140.524 78.7234 140.524 72.1675C140.524 65.6115 145.825 60.3459 152.991 60.3459ZM152.991 78.3904C156.479 78.3904 159.229 75.6744 159.229 72.1571C159.229 68.6397 156.479 65.9237 152.991 65.9237C149.502 65.9237 146.752 68.671 146.752 72.1571C146.752 75.6432 149.47 78.3904 152.991 78.3904Z" fill="white"/>
<path d="M168.488 60.9911H174.559V74.0822C174.559 76.6421 176.319 78.3904 178.715 78.3904C181.11 78.3904 182.87 76.6317 182.87 74.0822V60.9911H188.942V74.0822C188.942 79.8264 184.755 83.9785 178.715 83.9785C172.674 83.9785 168.488 79.8264 168.488 74.0822V60.9911Z" fill="white"/>
<path d="M192.618 60.9911H202.689C207.646 60.9911 211 64.3419 211 68.8166C211 73.2913 207.646 76.6421 202.689 76.6421H198.69V83.9889H192.618V60.9911ZM202.366 71.21C203.803 71.21 204.928 70.0966 204.928 68.8166C204.928 67.5366 203.814 66.4232 202.366 66.4232H198.69V71.21H202.366Z" fill="white"/>
</g>
<defs>
<clipPath id="clip0_148_233">
<rect width="211" height="84.1971" fill="white"/>
</clipPath>
</defs>
</svg>
