<?xml version="1.0" encoding="utf-8"?>
<!-- Generator: Adobe Illustrator 26.0.1, SVG Export Plug-In . SVG Version: 6.00 Build 0)  -->
<svg version="1.1" id="Capa_1" xmlns="http://www.w3.org/2000/svg" xmlns:xlink="http://www.w3.org/1999/xlink" x="0px" y="0px"
	 viewBox="0 0 1190.55 841.89" style="enable-background:new 0 0 1190.55 841.89;" xml:space="preserve">
<style type="text/css">
	.st0{fill:#FAB906;}
	.st1{fill:#FFFFFF;}
	.st2{fill:#5BC5F2;}
	.st3{fill:#009DDF;}
	.st4{fill:#0086C7;}
	.st5{fill:#006C9B;}
	.st6{fill:#00597D;}
	.st7{fill:#004862;}
</style>
<g>
	<path class="st0" d="M286.23,315.82c43.8-9.03,29.79,137.91,187.37,99c0.04-11.52-1.21-23.21-3.85-34.92
		c-17.6-77.87-94.79-138.09-186.15-117.48c-68.52,15.46-116.18,73.87-121.01,140.43C177.99,366.38,212.72,330.97,286.23,315.82z"/>
	<path class="st1" d="M286.23,315.82c-73.51,15.15-108.24,50.56-123.65,87.03c-0.35,4.85-0.48,9.75-0.37,14.67
		c13.56-34.09,44.92-68.3,112.98-84.24c49.37-11.56,21.43,131.43,198.19,89.26c0.14-2.56,0.21-5.13,0.22-7.71
		C316.01,453.73,330.02,306.79,286.23,315.82z"/>
	<path class="st2" d="M275.19,333.27c-68.06,15.94-99.42,50.16-112.98,84.24c0.15,6.66,0.74,13.37,1.77,20.11
		c11.24-33.83,38.08-69.61,99.61-82.78c56-11.99,26.84,121.66,209.6,70.51c0.07-0.94,0.13-1.88,0.18-2.83
		C296.62,464.7,324.57,321.71,275.19,333.27z"/>
	<path class="st3" d="M263.59,354.85c-61.53,13.17-88.37,48.95-99.61,82.78c0.55,3.6,1.23,7.2,2.04,10.8
		c0.61,2.68,1.28,5.33,2.02,7.95c9.74-29.5,28.98-62.77,66.96-75.62c76.72-25.95,36.05,98.07,237.7,50.12
		c0.2-1.83,0.36-3.67,0.49-5.52C290.44,476.51,319.6,342.86,263.59,354.85z"/>
	<path class="st4" d="M235,380.75c-37.98,12.85-57.22,46.12-66.96,75.62c1.23,4.38,2.65,8.66,4.23,12.85
		c12.64-27.78,34.4-60.59,67.88-65.69c75.45-11.49,40.52,75.6,231.54,34.95c0.4-2.52,0.74-5.06,1.01-7.61
		C271.05,478.82,311.72,354.8,235,380.75z"/>
	<path class="st5" d="M240.15,403.53c-33.48,5.1-55.24,37.91-67.88,65.69c1.18,3.12,2.44,6.19,3.8,9.19
		c13.15-19.67,32.43-42.74,54.19-50.2c53.28-18.26,77.94,50.03,239.46,20.47c0.77-3.37,1.43-6.77,1.97-10.2
		C280.67,479.13,315.6,392.04,240.15,403.53z"/>
	<path class="st6" d="M230.25,428.22c-21.76,7.46-41.04,30.53-54.19,50.2c1.11,2.46,2.29,4.89,3.53,7.27
		c15-14.64,36.22-31.63,58.27-37.19c32.26-8.13,100.63,29.42,229.6,8.85c0.83-2.86,1.58-5.75,2.25-8.66
		C308.19,478.24,283.53,409.96,230.25,428.22z"/>
	<path class="st7" d="M237.87,448.5c-22.05,5.56-43.27,22.54-58.27,37.19c1.27,2.46,2.6,4.87,4,7.23
		c15.95-9.39,37.41-20.28,58.53-25.61c29.55-7.45,118.6,10.36,222.63-1.49c0.99-2.8,1.9-5.62,2.73-8.48
		C338.5,477.92,270.13,440.37,237.87,448.5z"/>
	<path class="st7" d="M242.12,467.31c-21.12,5.32-42.58,16.22-58.53,25.61c33.38,56.85,100.8,88.28,168.59,72.98
		c54.2-12.23,95.34-51.33,112.57-100.08C360.71,477.68,271.67,459.86,242.12,467.31z"/>
</g>
<g>
	<path class="st1" d="M860.63,368.87c15.96,14.02,23.95,31.26,23.85,51.84c0,20.59-7.98,37.83-23.94,51.84
		c-10.76,9.45-24.45,15.14-38.74,16.08c-21.16,1.38-38.97-5.22-53.54-19.79c-13.31-13.31-19.97-29.32-19.97-48.13
		c0.09-18.8,6.75-34.81,20.06-48.13c14.58-14.58,32.39-21.18,53.55-19.79C836.19,353.73,849.87,359.42,860.63,368.87z
		 M855.42,459.76c10.7-10.79,16.1-23.84,16.1-39.04s-5.4-28.25-16.1-39.04c-10.79-10.7-23.84-16.1-39.04-16.1
		c-15.2,0-28.25,5.4-39.04,16.1c-10.71,10.79-16.1,23.84-16.1,39.04s5.4,28.25,16.1,39.04c10.79,10.7,23.84,16.1,39.04,16.1
		C831.58,475.86,844.63,470.46,855.42,459.76z"/>
	<path class="st1" d="M908.3,487.28h-7.15c-1.63,0-2.95-1.32-2.95-2.95V330.01c0-1.63,1.32-2.95,2.95-2.95h7.15
		c1.63,0,2.95,1.32,2.95,2.95v154.32C911.25,485.96,909.93,487.28,908.3,487.28z"/>
	<path class="st1" d="M1043.8,466.85c-0.06,0.07-0.13,0.13-0.19,0.2c-14.44,14.67-34.49,22.97-55.03,21.6
		c-16.61-1.11-30.92-7.71-43.01-19.8c-13.31-13.31-19.97-29.32-19.97-48.13c0.1-20.59,8.07-37.83,24.03-51.85
		c10.76-9.45,24.45-15.14,38.75-16.07c21.16-1.38,38.96,5.22,53.54,19.79c13.31,13.31,19.97,29.32,19.88,48.13v63.62
		c0,1.63-1.32,2.95-2.95,2.95h-7.06c-1.63,0-2.95-1.32-2.95-2.95v-15.41C1048.84,466.29,1045.65,464.97,1043.8,466.85z
		 M1032.74,459.76c10.7-10.79,16.1-23.84,16.1-39.04s-5.4-28.25-16.1-39.04c-10.79-10.7-23.84-16.1-39.04-16.1
		c-15.2,0-28.25,5.4-39.04,16.1c-10.7,10.79-16.1,23.84-16.1,39.04s5.4,28.25,16.1,39.04c10.79,10.7,23.84,16.1,39.04,16.1
		C1008.9,475.86,1021.95,470.46,1032.74,459.76z"/>
	<path class="st1" d="M557.44,487.28h-7.15c-1.63,0-2.95-1.32-2.95-2.95V330.01c0-1.63,1.32-2.95,2.95-2.95h7.15
		c1.63,0,2.95,1.32,2.95,2.95v154.32C560.39,485.96,559.07,487.28,557.44,487.28z"/>
	<path class="st1" d="M692.94,466.85c-0.06,0.07-0.13,0.13-0.19,0.2c-14.44,14.67-34.49,22.97-55.03,21.6
		c-16.61-1.11-30.92-7.71-43.01-19.8c-13.31-13.31-19.97-29.32-19.97-48.13c0.1-20.59,8.07-37.83,24.03-51.85
		c10.76-9.45,24.45-15.14,38.75-16.07c21.16-1.38,38.96,5.22,53.53,19.79c13.31,13.31,19.97,29.32,19.88,48.13v63.62
		c0,1.63-1.32,2.95-2.95,2.95h-7.06c-1.63,0-2.95-1.32-2.95-2.95v-15.41C697.98,466.29,694.78,464.97,692.94,466.85z M681.88,459.76
		c10.7-10.79,16.1-23.84,16.1-39.04s-5.4-28.25-16.1-39.04c-10.79-10.7-23.84-16.1-39.04-16.1c-15.2,0-28.25,5.4-39.04,16.1
		c-10.7,10.79-16.1,23.84-16.1,39.04s5.4,28.25,16.1,39.04c10.79,10.7,23.84,16.1,39.04,16.1
		C658.04,475.86,671.08,470.46,681.88,459.76z"/>
</g>
</svg>
