<svg width="220" height="118" viewBox="0 0 220 118" fill="none" xmlns="http://www.w3.org/2000/svg">
<g clip-path="url(#clip0_219_19)">
<path d="M193.905 48.2855C192.009 45.9565 189.872 43.825 187.536 41.9535C182.916 38.2312 177.678 35.5383 171.958 33.9579C168.941 33.1261 165.799 32.6167 162.625 32.4607H158.12C154.967 32.6167 151.824 33.1261 148.797 33.9683C143.087 35.5383 137.839 38.2312 133.219 41.9639C130.873 43.8458 128.736 45.9773 126.861 48.2855C123.1 52.8812 120.397 58.0799 118.826 63.7568C117.789 67.4687 117.265 71.3157 117.265 75.194C117.265 79.0722 117.799 82.9608 118.836 86.6935C120.429 92.3601 123.142 97.5692 126.903 102.165C128.778 104.463 130.904 106.573 133.219 108.434C137.839 112.167 143.087 114.86 148.797 116.44C152.557 117.48 156.454 118 160.383 118H220V104.535H158.927V104.442C155.04 104.255 151.29 103.329 147.781 101.676C141.621 98.7753 136.624 93.8157 133.712 87.7124C131.837 83.7926 130.894 79.5817 130.894 75.2044C130.894 70.8271 131.837 66.6577 133.68 62.7587C136.593 56.6242 141.6 51.6439 147.781 48.7326C151.74 46.8715 155.983 45.9253 160.383 45.9253C164.783 45.9253 169.025 46.8715 172.985 48.7326C179.166 51.6335 184.173 56.6138 187.075 62.7587C188.929 66.6681 189.872 70.8583 189.872 75.2044C189.872 78.8123 189.222 82.3162 187.944 85.6434H202.223C203.082 82.2434 203.511 78.7395 203.511 75.2044C203.511 71.3158 202.987 67.4687 201.95 63.7672C200.369 58.1007 197.666 52.8916 193.905 48.2855Z" fill="#0E63AB"/>
<path d="M84.6855 63.7568C83.1141 58.1007 80.4114 52.8916 76.6611 48.2959C74.765 45.9669 72.6175 43.8354 70.2919 41.9639C65.6616 38.2312 60.4238 35.5383 54.7145 33.9683C51.6766 33.1261 48.5339 32.6167 45.3702 32.4607H40.8657C37.723 32.6271 34.5803 33.1261 31.5423 33.9683C25.8331 35.5383 20.5952 38.2312 15.965 41.9639C13.6289 43.8458 11.4918 45.9669 9.59573 48.2959C5.84544 52.8916 3.14271 58.1007 1.56088 63.7672C0.523785 67.4791 0 71.3261 0 75.2044C0 79.0826 0.53426 82.9712 1.57135 86.7039C3.16366 92.3809 5.87686 97.59 9.63764 102.175C11.5233 104.473 13.6498 106.584 15.965 108.455C20.5952 112.188 25.8331 114.881 31.5423 116.451C39.0115 118.51 47.2349 118.51 54.7145 116.451C60.4238 114.87 65.6616 112.188 70.2919 108.455C72.607 106.594 74.7336 104.473 76.6192 102.175C80.38 97.59 83.0932 92.3809 84.6855 86.7039C85.7331 82.9712 86.2568 79.1034 86.2568 75.2044C86.2464 71.3157 85.7121 67.4583 84.6855 63.7568ZM69.7786 87.702C66.8768 93.8053 61.8799 98.7753 55.7202 101.666C51.7709 103.527 47.5282 104.463 43.1179 104.463C38.7077 104.463 34.465 103.516 30.5157 101.666C24.356 98.7649 19.3591 93.8053 16.4468 87.702C14.5822 83.7822 13.6289 79.5713 13.6289 75.194C13.6289 70.8167 14.5717 66.6473 16.4154 62.7483C19.3277 56.6138 24.335 51.6335 30.5157 48.7222C34.4755 46.8611 38.7182 45.9149 43.1179 45.9149C47.5177 45.9149 51.7604 46.8611 55.7202 48.7222C61.9009 51.6231 66.9082 56.6034 69.81 62.7483C71.6642 66.6577 72.607 70.8479 72.607 75.194C72.607 79.5401 71.6537 83.7718 69.7786 87.702Z" fill="#0E63AB"/>
<path d="M67.1701 63.9856C64.5512 58.4542 60.0362 53.9625 54.4736 51.3527C50.9119 49.6788 47.0882 48.8262 43.1179 48.8262C39.1477 48.8262 35.3345 49.6788 31.7728 51.3527C26.2102 53.9729 21.6952 58.4542 19.0658 63.9856C17.4001 67.4999 16.5621 71.2637 16.5621 75.194C16.5621 79.1242 17.4106 82.9296 19.0972 86.4543C21.7161 91.9546 26.2207 96.4254 31.7728 99.0456C35.324 100.72 39.1477 101.562 43.1179 101.562C47.0882 101.562 50.9119 100.72 54.4736 99.0456C60.0257 96.4358 64.5303 91.965 67.1387 86.4647C68.8253 82.9296 69.6843 79.1346 69.6843 75.2044C69.6843 71.2741 68.8358 67.4999 67.1701 63.9856ZM43.1179 88.4714C35.7431 88.4714 29.751 82.5137 29.751 75.194C29.751 67.8742 35.7535 61.9165 43.1179 61.9165C50.4824 61.9165 56.4954 67.8742 56.4954 75.194C56.4954 82.5137 50.4928 88.4714 43.1179 88.4714Z" fill="#0E63AB"/>
<path d="M78.9238 46.4659C82.0561 50.313 84.5179 54.5551 86.2359 59.1196V0H72.6699V40.1443C74.9431 42.0367 77.0487 44.1681 78.9238 46.4659Z" fill="#0E63AB"/>
<path d="M91.7671 86.3087C94.386 91.8194 98.8905 96.2902 104.432 98.9C108.067 100.605 111.891 101.479 115.777 101.479H122.817C119.947 97.4859 117.768 93.0878 116.322 88.3882H115.777C109 88.3882 103.217 83.1895 102.484 76.504H102.337V0.010376H89.1481V73.6031H89.211V75.0588C89.2215 78.9786 90.0805 82.7736 91.7671 86.3087Z" fill="#0E63AB"/>
<path d="M125.09 104.369H115.788C111.461 104.369 107.219 103.413 103.186 101.51C97.0259 98.6193 92.029 93.6598 89.1272 87.5357C88.7396 86.7351 88.3939 85.9033 88.0901 85.0715C87.912 85.8721 87.713 86.6727 87.493 87.4525C86.1731 92.1626 84.0884 96.623 81.3019 100.709C81.6476 101.177 81.9828 101.593 82.2971 101.988C84.1722 104.286 86.2988 106.397 88.6139 108.258C93.2337 111.99 98.482 114.683 104.202 116.264C107.963 117.303 111.859 117.823 115.788 117.823H144.261C139.599 116.097 135.273 113.633 131.365 110.483C129.092 108.674 126.976 106.605 125.09 104.369Z" fill="#0E63AB"/>
<path d="M171.728 51.3527C168.166 49.6788 164.343 48.8262 160.383 48.8262C156.423 48.8262 152.589 49.6788 149.027 51.3527C143.465 53.9729 138.95 58.4542 136.32 63.9856C134.655 67.4999 133.806 71.2637 133.806 75.194C133.806 79.1242 134.655 82.9296 136.341 86.4543C138.96 91.9546 143.465 96.4254 149.017 99.0456C152.568 100.72 156.392 101.562 160.372 101.562H161.839V101.624H219.99V88.5234L198.232 88.4714H160.372C152.997 88.4714 146.995 82.5137 146.995 75.194C146.995 67.8742 152.997 61.9165 160.372 61.9165C167.747 61.9165 173.739 67.8742 173.739 75.194C173.739 79.2801 171.843 83.1168 168.617 85.6329H184.749C186.195 82.3162 186.928 78.8123 186.928 75.194C186.928 71.2741 186.08 67.4999 184.414 63.9856C181.806 58.4542 177.291 53.9625 171.728 51.3527Z" fill="#0E63AB"/>
</g>
<defs>
<clipPath id="clip0_219_19">
<rect width="220" height="118" fill="white"/>
</clipPath>
</defs>
</svg>
