<svg width="39" height="341" viewBox="0 0 39 341" fill="none" xmlns="http://www.w3.org/2000/svg">
<path d="M0 292.219H39" stroke="#0E63AB" stroke-width="4" stroke-miterlimit="10"/>
<path d="M0 303.829H39" stroke="#0E63AB" stroke-width="4" stroke-miterlimit="10"/>
<path d="M0 315.429H39" stroke="#0E63AB" stroke-width="4" stroke-miterlimit="10"/>
<path d="M0 327.029H39" stroke="#0E63AB" stroke-width="4" stroke-miterlimit="10"/>
<path d="M0 338.639H39" stroke="#0E63AB" stroke-width="4" stroke-miterlimit="10"/>
<path d="M0 234.209H39" stroke="#0E63AB" stroke-width="4" stroke-miterlimit="10"/>
<path d="M0 245.809H39" stroke="#0E63AB" stroke-width="4" stroke-miterlimit="10"/>
<path d="M0 257.409H39" stroke="#0E63AB" stroke-width="4" stroke-miterlimit="10"/>
<path d="M0 269.019H39" stroke="#0E63AB" stroke-width="4" stroke-miterlimit="10"/>
<path d="M0 280.619H39" stroke="#0E63AB" stroke-width="4" stroke-miterlimit="10"/>
<path d="M0 176.189H39" stroke="#0E63AB" stroke-width="4" stroke-miterlimit="10"/>
<path d="M0 187.789H39" stroke="#0E63AB" stroke-width="4" stroke-miterlimit="10"/>
<path d="M0 199.399H39" stroke="#0E63AB" stroke-width="4" stroke-miterlimit="10"/>
<path d="M0 210.999H39" stroke="#0E63AB" stroke-width="4" stroke-miterlimit="10"/>
<path d="M0 222.599H39" stroke="#0E63AB" stroke-width="4" stroke-miterlimit="10"/>
<path d="M0 118.169H39" stroke="#0E63AB" stroke-width="4" stroke-miterlimit="10"/>
<path d="M0 129.779H39" stroke="#0E63AB" stroke-width="4" stroke-miterlimit="10"/>
<path d="M0 141.379H39" stroke="#0E63AB" stroke-width="4" stroke-miterlimit="10"/>
<path d="M0 152.979H39" stroke="#0E63AB" stroke-width="4" stroke-miterlimit="10"/>
<path d="M0 164.589H39" stroke="#0E63AB" stroke-width="4" stroke-miterlimit="10"/>
<path d="M0 60.1587H39" stroke="#0E63AB" stroke-width="4" stroke-miterlimit="10"/>
<path d="M0 71.7588H39" stroke="#0E63AB" stroke-width="4" stroke-miterlimit="10"/>
<path d="M0 83.3586H39" stroke="#0E63AB" stroke-width="4" stroke-miterlimit="10"/>
<path d="M0 94.9688H39" stroke="#0E63AB" stroke-width="4" stroke-miterlimit="10"/>
<path d="M0 106.569H39" stroke="#0E63AB" stroke-width="4" stroke-miterlimit="10"/>
<path d="M0 2.13867H39" stroke="#0E63AB" stroke-width="4" stroke-miterlimit="10"/>
<path d="M0 13.7388H39" stroke="#0E63AB" stroke-width="4" stroke-miterlimit="10"/>
<path d="M0 25.3486H39" stroke="#0E63AB" stroke-width="4" stroke-miterlimit="10"/>
<path d="M0 36.9487H39" stroke="#0E63AB" stroke-width="4" stroke-miterlimit="10"/>
<path d="M0 48.5488H39" stroke="#0E63AB" stroke-width="4" stroke-miterlimit="10"/>
</svg>
