<svg width="182" height="183" viewBox="0 0 182 183" fill="none" xmlns="http://www.w3.org/2000/svg">
<path d="M33.6646 20.3559C28.7238 24.3819 24.2098 28.9507 20.2572 33.8813C12.3295 43.6974 6.64758 54.848 3.30133 66.9711C1.1229 74.9099 0 83.1427 0 91.4435C0 99.7442 1.1229 108.067 3.32379 116.029C6.67004 128.152 12.3968 139.28 20.3245 149.119C24.2771 154.049 28.7463 158.55 33.6422 162.531C43.3889 170.515 54.4383 176.283 66.4983 179.653C74.426 181.869 82.6456 183 90.9326 183H181.798V154.185H87.8559V153.981C79.6587 153.574 71.7535 151.607 64.3648 148.078C51.384 141.881 40.8512 131.273 34.6977 118.2C30.7451 109.809 28.7463 100.807 28.7463 91.4435C28.7463 82.0797 30.7226 73.1683 34.6303 64.8224C40.7838 51.6815 51.3391 41.0285 64.3423 34.8313C72.6967 30.8506 81.635 28.8376 90.9102 28.8376C100.185 28.8376 109.124 30.8506 117.478 34.8313C130.504 41.0285 141.059 51.6815 147.19 64.8224C151.098 73.1909 153.074 82.1476 153.074 91.4435C153.074 99.1561 151.704 106.665 149.009 113.767H179.103C180.9 106.484 181.82 98.9978 181.82 91.4435C181.82 83.1427 180.72 74.9099 178.519 66.9711C175.218 54.8706 169.513 43.7427 161.586 33.8813C157.588 28.9054 153.074 24.3367 148.156 20.3333C138.431 12.3493 127.382 6.60437 115.3 3.21172C108.944 1.42492 102.319 0.339266 95.6264 0H86.1266C79.479 0.339266 72.8539 1.42492 66.4758 3.23433C54.4608 6.62699 43.4114 12.3719 33.6646 20.3559Z" fill="white"/>
<path d="M181.82 148.01V119.919H90.9552C75.4142 119.919 62.7479 107.14 62.7479 91.4887C62.7479 75.8372 75.3918 63.0808 90.9552 63.0808C106.519 63.0808 119.14 75.8146 119.14 91.4887C119.14 100.219 115.142 108.429 108.338 113.812H142.362C145.416 106.71 146.943 99.2239 146.943 91.4887C146.943 83.0975 145.169 75.023 141.643 67.5139C136.118 55.6622 126.619 46.0723 114.873 40.4857C107.35 36.9121 99.3096 35.0801 90.9552 35.0801C82.6008 35.0801 74.5384 36.8895 67.0149 40.4857C55.2918 46.0723 45.7696 55.6848 40.2225 67.5139C36.719 75.023 34.9224 83.0975 34.9224 91.4887C34.9224 99.8799 36.719 108.022 40.2674 115.577C45.7921 127.36 55.2918 136.928 66.9924 142.514C74.4934 146.088 82.5334 147.897 90.9327 147.897H94.0095V148.033H181.82V148.01Z" fill="white"/>
</svg>
