<svg width="251" height="135" viewBox="0 0 251 135" fill="none" xmlns="http://www.w3.org/2000/svg">
<g clip-path="url(#clip0_219_141)">
<path d="M221.228 55.2419C219.065 52.5773 216.627 50.1388 213.961 47.9976C208.691 43.7391 202.715 40.6582 196.189 38.8501C192.747 37.8985 189.161 37.3156 185.54 37.1372H180.401C176.803 37.3156 173.218 37.8985 169.764 38.862C163.25 40.6582 157.262 43.7391 151.991 48.0095C149.314 50.1626 146.876 52.6011 144.736 55.2419C140.446 60.4996 137.362 66.4473 135.569 72.9421C134.386 77.1888 133.789 81.59 133.789 86.027C133.789 90.4639 134.398 94.9128 135.581 99.1832C137.398 105.666 140.494 111.626 144.784 116.883C146.924 119.512 149.35 121.927 151.991 124.056C157.262 128.327 163.25 131.408 169.764 133.216C174.054 134.405 178.5 135 182.982 135H251V119.596H181.321V119.489C176.887 119.274 172.608 118.216 168.604 116.324C161.577 113.006 155.876 107.331 152.553 100.349C150.414 95.8644 149.338 91.0468 149.338 86.0389C149.338 81.0309 150.414 76.2609 152.517 71.8002C155.84 64.7819 161.553 59.0841 168.604 55.7534C173.122 53.6241 177.962 52.5416 182.982 52.5416C188.002 52.5416 192.842 53.6241 197.36 55.7534C204.412 59.0722 210.125 64.77 213.435 71.8002C215.551 76.2728 216.627 81.0666 216.627 86.0389C216.627 90.1665 215.886 94.1753 214.427 97.9818H230.718C231.698 94.092 232.188 90.0833 232.188 86.0389C232.188 81.59 231.59 77.1888 230.407 72.954C228.602 66.4711 225.519 60.5115 221.228 55.2419Z" fill="white"/>
<path d="M96.6184 72.9421C94.8257 66.4711 91.7421 60.5115 87.4634 55.2538C85.3001 52.5892 82.85 50.1507 80.1967 48.0095C74.914 43.7391 68.9381 40.6582 62.4243 38.862C58.9583 37.8985 55.3727 37.3156 51.7633 37.1372H46.624C43.0385 37.3275 39.4529 37.8985 35.9869 38.862C29.4732 40.6582 23.4973 43.7391 18.2146 48.0095C15.5493 50.1626 13.1111 52.5892 10.9479 55.2538C6.66911 60.5115 3.58554 66.4711 1.78082 72.954C0.597591 77.2006 0 81.6019 0 86.0389C0 90.4758 0.609542 94.9247 1.79277 99.1951C3.60945 105.69 6.70497 111.649 10.9957 116.895C13.147 119.524 15.5732 121.939 18.2146 124.08C23.4973 128.351 29.4732 131.431 35.9869 133.228C44.5085 135.583 53.8907 135.583 62.4243 133.228C68.9381 131.42 74.914 128.351 80.1967 124.08C82.838 121.951 85.2642 119.524 87.4156 116.895C91.7063 111.649 94.8018 105.69 96.6184 99.1951C97.8136 94.9247 98.4112 90.4996 98.4112 86.0389C98.3993 81.59 97.7897 77.1769 96.6184 72.9421ZM79.611 100.337C76.3004 107.32 70.5994 113.006 63.5717 116.312C59.0659 118.442 54.2254 119.512 49.1937 119.512C44.1619 119.512 39.3215 118.43 34.8156 116.312C27.788 112.994 22.0869 107.32 18.7643 100.337C16.6369 95.8525 15.5493 91.0349 15.5493 86.027C15.5493 81.019 16.625 76.249 18.7285 71.7883C22.0511 64.77 27.7641 59.0722 34.8156 55.7415C39.3334 53.6122 44.1739 52.5298 49.1937 52.5298C54.2134 52.5298 59.0539 53.6122 63.5717 55.7415C70.6233 59.0603 76.3362 64.7581 79.6469 71.7883C81.7624 76.2609 82.838 81.0547 82.838 86.027C82.838 90.9992 81.7504 95.8406 79.611 100.337Z" fill="white"/>
<path d="M76.635 73.2037C73.6471 66.8754 68.4958 61.7366 62.1494 58.7509C58.0858 56.8358 53.7234 55.8604 49.1937 55.8604C44.6639 55.8604 40.3135 56.8358 36.2498 58.7509C29.9034 61.7485 24.7522 66.8754 21.7523 73.2037C19.852 77.2243 18.8958 81.5305 18.8958 86.0269C18.8958 90.5233 19.8639 94.877 21.7882 98.9095C24.7761 105.202 29.9154 110.317 36.2498 113.315C40.3015 115.23 44.6639 116.193 49.1937 116.193C53.7234 116.193 58.0858 115.23 62.1494 113.315C68.4839 110.329 73.6232 105.214 76.5992 98.9214C78.5234 94.877 79.5034 90.5352 79.5034 86.0388C79.5034 81.5424 78.5354 77.2243 76.635 73.2037ZM49.1937 101.217C40.7796 101.217 33.9431 94.4012 33.9431 86.0269C33.9431 77.6526 40.7915 70.8366 49.1937 70.8366C57.5958 70.8366 64.4561 77.6526 64.4561 86.0269C64.4561 94.4012 57.6077 101.217 49.1937 101.217Z" fill="white"/>
<path d="M90.045 53.1602C93.6185 57.5615 96.4272 62.4147 98.3873 67.6368V0H82.9097V45.9278C85.5033 48.0928 87.9056 50.5313 90.045 53.1602Z" fill="white"/>
<path d="M104.698 98.7429C107.686 105.047 112.825 110.162 119.148 113.148C123.295 115.099 127.657 116.098 132.091 116.098H140.123C136.848 111.53 134.362 106.499 132.713 101.122H132.091C124.359 101.122 117.761 95.1743 116.925 87.5256H116.757V0.0117188H101.71V84.2068H101.782V85.8721C101.794 90.3567 102.774 94.6985 104.698 98.7429Z" fill="white"/>
<path d="M142.717 119.405H132.103C127.167 119.405 122.327 118.311 117.725 116.134C110.698 112.827 104.997 107.153 101.686 100.147C101.244 99.2309 100.849 98.2793 100.503 97.3276C100.3 98.2436 100.073 99.1595 99.8215 100.052C98.3156 105.44 95.9372 110.543 92.758 115.218C93.1524 115.753 93.5349 116.229 93.8934 116.681C96.0328 119.31 98.459 121.725 101.1 123.854C106.371 128.125 112.359 131.206 118.885 133.014C123.175 134.203 127.621 134.798 132.103 134.798H164.588C159.27 132.823 154.334 130.004 149.876 126.4C147.282 124.33 144.868 121.963 142.717 119.405Z" fill="white"/>
<path d="M195.926 58.7509C191.862 56.8358 187.5 55.8604 182.982 55.8604C178.464 55.8604 174.09 56.8358 170.026 58.7509C163.68 61.7485 158.529 66.8754 155.529 73.2037C153.629 77.2243 152.661 81.5305 152.661 86.0269C152.661 90.5233 153.629 94.877 155.553 98.9095C158.541 105.202 163.68 110.317 170.015 113.315C174.066 115.23 178.429 116.193 182.97 116.193H184.644V116.265H250.988V101.277L226.164 101.217H182.97C174.556 101.217 167.708 94.4012 167.708 86.0269C167.708 77.6526 174.556 70.8366 182.97 70.8366C191.384 70.8366 198.221 77.6526 198.221 86.0269C198.221 90.7017 196.058 95.0911 192.376 97.9698H210.782C212.432 94.1752 213.268 90.1665 213.268 86.0269C213.268 81.5423 212.3 77.2243 210.4 73.2037C207.424 66.8754 202.272 61.7366 195.926 58.7509Z" fill="white"/>
</g>
<defs>
<clipPath id="clip0_219_141">
<rect width="251" height="135" fill="white"/>
</clipPath>
</defs>
</svg>
